<svg width="35" height="34" viewBox="0 0 35 34" fill="none" xmlns="http://www.w3.org/2000/svg">
<path d="M14.7375 3.58416L6.20915 9.15166C3.47498 10.9367 3.47498 14.9317 6.20915 16.7167L14.7375 22.2842C16.2675 23.29 18.7891 23.29 20.3191 22.2842L28.805 16.7167C31.525 14.9317 31.525 10.9508 28.805 9.16582L20.3191 3.59832C18.7891 2.57832 16.2675 2.57832 14.7375 3.58416Z" stroke="#161616" stroke-width="2.125" stroke-linecap="round" stroke-linejoin="round"/>
<path d="M8.47582 18.53L8.46165 25.1742C8.46165 26.9734 9.84999 28.9 11.55 29.4667L16.0692 30.9684C16.8483 31.2234 18.1375 31.2234 18.9308 30.9684L23.45 29.4667C25.15 28.9 26.5383 26.9734 26.5383 25.1742V18.6009" stroke="#161616" stroke-width="2.125" stroke-linecap="round" stroke-linejoin="round"/>
<path d="M30.8167 21.25V12.75" stroke="#161616" stroke-width="2.125" stroke-linecap="round" stroke-linejoin="round"/>
</svg>
